# xmcd
#
# Track frame offsets: 
#        150
#        18949
#        34324
#        55927
#        71445
#        94056
#        111499
#        130475
#        149208
#        164567
#        187354
#
# Disc length: 2705 seconds
#
# Revision: 0
# Processed by: cddbd v1.5.2PL0 Copyright (c) Steve Scherf et al.
# Submitted via: ExactAudioCopyFreeDBPlugin 1.0
#
DISCID=b00a8f0b
DTITLE=Сергей Пенкин - 2010 Live in Moscow CD1
DYEAR=2010
DGENRE=Vocal
TTITLE0=Дивная история
TTITLE1=Днём весенним
TTITLE2=Возьми с собой мою любовь
TTITLE3=Я не знаю что будет
TTITLE4=Прошу прости
TTITLE5=Мне не забыть тебя
TTITLE6=За пеленой дождя
TTITLE7=В другую весну
TTITLE8=Вечная любовь
TTITLE9=Дождь осенний
TTITLE10=Опять метель
EXTD=
EXTT0=
EXTT1=
EXTT2=
EXTT3=
EXTT4=
EXTT5=
EXTT6=
EXTT7=
EXTT8=
EXTT9=
EXTT10=
PLAYORDER=
